<?xml version="1.0" encoding="UTF-8" standalone="no"?>
<svg
   xmlns:dc="http://purl.org/dc/elements/1.1/"
   xmlns:cc="http://creativecommons.org/ns#"
   xmlns:rdf="http://www.w3.org/1999/02/22-rdf-syntax-ns#"
   xmlns:svg="http://www.w3.org/2000/svg"
   xmlns="http://www.w3.org/2000/svg"
   xmlns:sodipodi="http://sodipodi.sourceforge.net/DTD/sodipodi-0.dtd"
   xmlns:inkscape="http://www.inkscape.org/namespaces/inkscape"
   inkscape:export-ydpi="96"
   inkscape:export-xdpi="96"
   inkscape:export-filename="/home/grimm/Dropbox/workspace/projects/websites/clueless-coder/images/clueless.png"
   sodipodi:docname="clueless.svg"
   inkscape:version="1.0 (6e3e5246a0, 2020-05-07)"
   id="svg8"
   version="1.1"
   viewBox="0 0 210 297"
   height="297mm"
   width="210mm">
  <defs
     id="defs2" />
  <sodipodi:namedview
     inkscape:window-maximized="1"
     inkscape:window-y="0"
     inkscape:window-x="0"
     inkscape:window-height="1004"
     inkscape:window-width="1920"
     showgrid="false"
     inkscape:document-rotation="0"
     inkscape:current-layer="layer1"
     inkscape:document-units="mm"
     inkscape:cy="515.66614"
     inkscape:cx="358.16775"
     inkscape:zoom="3.959798"
     inkscape:pageshadow="2"
     inkscape:pageopacity="0.0"
     borderopacity="1.0"
     bordercolor="#666666"
     pagecolor="#ffffff"
     id="base" />
  <metadata
     id="metadata5">
    <rdf:RDF>
      <cc:Work
         rdf:about="">
        <dc:format>image/svg+xml</dc:format>
        <dc:type
           rdf:resource="http://purl.org/dc/dcmitype/StillImage" />
        <dc:title></dc:title>
      </cc:Work>
    </rdf:RDF>
  </metadata>
  <g
     id="layer1"
     inkscape:groupmode="layer"
     inkscape:label="Layer 1">
    <g
       id="g1064">
      <g
         id="g1043"
         transform="translate(-27.870317,9.4752637)">
        <g
           transform="matrix(0.35838716,0,0,0.35838716,88.127663,73.266873)"
           id="g1017">
          <path
             id="rect837"
             style="opacity:0.996;fill:#ff0000;stroke-width:0.999999"
             d="m 313.96484,437.63867 c -1.04692,0 -1.88867,0.84174 -1.88867,1.88867 v 15.48438 c 0,1.04693 0.84175,1.88867 1.88867,1.88867 h 17.72852 c 1.04692,0 1.88867,-0.84174 1.88867,-1.88867 v -15.48438 c 0,-1.04693 -0.84175,-1.88867 -1.88867,-1.88867 z m 4.06055,2.60352 a 3.8701153,3.8701153 0 0 1 3.86914,3.86914 3.8701153,3.8701153 0 0 1 -3.86914,3.87109 3.8701153,3.8701153 0 0 1 -3.87109,-3.87109 3.8701153,3.8701153 0 0 1 3.87109,-3.86914 z m 10,0 a 3.8701153,3.8701153 0 0 1 3.86914,3.86914 3.8701153,3.8701153 0 0 1 -3.86914,3.87109 3.8701153,3.8701153 0 0 1 -3.87109,-3.87109 3.8701153,3.8701153 0 0 1 3.87109,-3.86914 z m -9.12695,10.52343 h 8.43359 c 1.04693,0 1.88867,0.53665 1.88867,1.20313 0,0.66652 -0.84174,1.20313 -1.88867,1.20313 h -8.43359 c -1.04693,0 -1.88867,-0.53661 -1.88867,-1.20313 0,-0.66648 0.84174,-1.20312 1.88867,-1.20313 z"
             transform="scale(0.26458333)" />
          <rect
             style="opacity:0.996;fill:#ff0000;stroke-width:0.264583"
             id="rect839"
             width="7.6072855"
             height="8.3422461"
             x="81.693092"
             y="121.45123"
             rx="0.49999899" />
          <g
             id="g901"
             transform="translate(9.8562561,-5.4977076)">
            <rect
               rx="0.49999899"
               y="134.66943"
               x="73.182892"
               height="5.8887773"
               width="1.914811"
               id="rect841"
               style="opacity:0.996;fill:#ff0000;stroke-width:0.264583" />
            <rect
               rx="0.49999899"
               y="140.55821"
               x="71.343407"
               height="1.9423878"
               width="3.7542903"
               id="rect847"
               style="opacity:0.996;fill:#ff0000;stroke-width:0.264583" />
          </g>
          <g
             id="g859"
             transform="translate(4.2851458,-4.4890603)">
            <rect
               style="opacity:0.996;fill:#ff0000;stroke-width:0.264583"
               id="rect845"
               width="1.914811"
               height="5.8887773"
               x="81.868622"
               y="133.73624"
               rx="0.49999899" />
            <rect
               style="opacity:0.996;fill:#ff0000;stroke-width:0.264583"
               id="rect849"
               width="3.7542903"
               height="1.9423878"
               x="81.868622"
               y="139.62502"
               rx="0.49999899" />
          </g>
          <g
             id="g945"
             transform="rotate(15.97222,91.744483,151.49564)">
            <rect
               style="opacity:0.996;fill:#ff0000;stroke-width:0.264583"
               id="rect841-0"
               width="1.914811"
               height="5.8887773"
               x="72.044563"
               y="125.88567"
               rx="0.49999899" />
            <path
               sodipodi:nodetypes="ccsscsscscc"
               transform="scale(0.26458333)"
               d="m 275.83398,496.79883 c -2.23057,0.0113 -4.03315,1.92126 -4.0332,4.27344 8.5e-4,1.41652 0.52563,2.99077 1.7793,3.53515 0.84487,0.36687 -0.25605,-1.85911 -0.25634,-2.76283 -6.5e-4,-1.78329 0.6702,-2.74186 2.5161,-2.84264 1.84515,4.6e-4 2.15977,1.27802 2.44443,2.37874 0.25855,0.99979 -1.19194,3.79929 -0.32138,3.34001 1.26075,-0.66513 1.94313,-2.15816 1.94336,-3.64843 -8e-5,-2.3602 -1.81453,-4.27347 -4.05273,-4.27344 -0.007,-2e-5 -0.013,-2e-5 -0.0195,0 z"
               style="opacity:0.996;fill:#ff0000;fill-opacity:1;stroke-width:0.875728"
               id="path905" />
          </g>
          <g
             transform="matrix(-0.96139523,0.27517125,0.27517125,0.96139523,125.81622,-19.396983)"
             id="g951">
            <rect
               rx="0.49999899"
               y="125.88567"
               x="72.044563"
               height="5.8887773"
               width="1.914811"
               id="rect947"
               style="opacity:0.996;fill:#ff0000;stroke-width:0.264583" />
            <path
               id="path949"
               style="opacity:0.996;fill:#ff0000;fill-opacity:1;stroke-width:0.875728"
               d="m 275.83398,496.79883 c -2.23057,0.0113 -4.03315,1.92126 -4.0332,4.27344 8.5e-4,1.41652 0.52563,2.99077 1.7793,3.53515 0.84487,0.36687 -0.25605,-1.85911 -0.25634,-2.76283 -6.5e-4,-1.78329 0.6702,-2.74186 2.5161,-2.84264 1.84515,4.6e-4 2.15977,1.27802 2.44443,2.37874 0.25855,0.99979 -1.19194,3.79929 -0.32138,3.34001 1.26075,-0.66513 1.94313,-2.15816 1.94336,-3.64843 -8e-5,-2.3602 -1.81453,-4.27347 -4.05273,-4.27344 -0.007,-2e-5 -0.013,-2e-5 -0.0195,0 z"
               transform="scale(0.26458333)"
               sodipodi:nodetypes="ccsscsscscc" />
          </g>
          <path
             style="fill:#000000;fill-opacity:0;stroke:#ff0000;stroke-width:0.265;stroke-linecap:round;stroke-linejoin:round;stroke-miterlimit:4;stroke-dasharray:none;stroke-opacity:1"
             d="m 84.672184,113.2293 1.023951,0.85702 -1.096981,0.67543 1.059741,0.74121 v 0"
             id="path957" />
        </g>
      </g>
      <text
         xml:space="preserve"
         style="font-style:normal;font-weight:normal;font-size:10.5833px;line-height:1.25;font-family:sans-serif;letter-spacing:0px;word-spacing:0px;fill:#000000;fill-opacity:1;stroke:none;stroke-width:0.264583"
         x="94.914978"
         y="131.35461"
         id="text835"><tspan
           sodipodi:role="line"
           id="tspan833"
           x="94.914978"
           y="131.35461"
           style="font-style:normal;font-variant:normal;font-weight:normal;font-stretch:normal;font-family:'Liberation Sans';-inkscape-font-specification:'Liberation Sans';fill:#ff0000;stroke-width:0.264583">Clueless</tspan></text>
    </g>
  </g>
</svg>
